<?xml version="1.0" encoding="utf-8"?>
<!-- Generator: Adobe Illustrator 19.0.0, SVG Export Plug-In . SVG Version: 6.00 Build 0)  -->
<svg version="1.1" id="Capa_1" xmlns="http://www.w3.org/2000/svg" xmlns:xlink="http://www.w3.org/1999/xlink" x="0px" y="0px"
	 viewBox="-234.4 1115.8 766.3 705.5" style="enable-background:new -234.4 1115.8 766.3 705.5;" xml:space="preserve">
<style type="text/css">
	.st0{fill:none;stroke:#303030;stroke-width:7;stroke-miterlimit:10;}
	.st1{fill:#303030;}
	.st2{fill:#1E2121;}
	.st3{fill:#303030;stroke:#FFFFFF;stroke-width:2;stroke-miterlimit:10;}
	.st4{fill:#FFFFFF;}
	.st5{fill:#EE533B;}
</style>
<path class="st0" d="M178,1723.8c0,56,16.1,94,73.1,94s72.9-81.1,72.9-132"/>
<path class="st1" d="M501.7,1282.4h-235c-16.6,0-30.2-13.6-30.2-30.2v-92.1c0-16.6,13.6-30.2,30.2-30.2h234.9
	c16.6,0,30.2,13.6,30.2,30.2v92.1C531.9,1268.8,518.3,1282.4,501.7,1282.4z"/>
<path class="st1" d="M-142.2,1736.7h-28.6c-16.6,0-30.2-13.6-30.2-30.2v-269.4c0-16.6,13.6-30.2,30.2-30.2h28.6
	c16.6,0,30.2,13.6,30.2,30.2v269.4C-112,1723.1-125.6,1736.7-142.2,1736.7z"/>
<path class="st1" d="M-34.2,1736.7h-28.6c-16.6,0-30.2-13.6-30.2-30.2v-269.4c0-16.6,13.6-30.2,30.2-30.2h28.6
	c16.6,0,30.2,13.6,30.2,30.2v269.4C-4,1723.1-17.6,1736.7-34.2,1736.7z"/>
<path class="st1" d="M-234.4,1586.1v-28.6c0-16.6,13.6-30.2,30.2-30.2H65.2c16.6,0,30.2,13.6,30.2,30.2v28.6
	c0,16.6-13.6,30.2-30.2,30.2h-269.4C-220.8,1616.3-234.4,1602.7-234.4,1586.1z"/>
<path class="st2" d="M406.8,1723.8h-599.6c-16.6,0-30.2-13.6-30.2-30.2V1146c0-16.6,13.6-30.2,30.2-30.2h599.6
	c16.6,0,30.2,13.6,30.2,30.2v547.6C437,1710.2,423.4,1723.8,406.8,1723.8z"/>
<path class="st1" d="M121.8,1459.7h-297.6c-16.6,0-30.2-13.6-30.2-30.2v-269.4c0-16.6,13.6-30.2,30.2-30.2h297.6
	c16.6,0,30.2,13.6,30.2,30.2v269.4C152,1446.1,138.4,1459.7,121.8,1459.7z"/>
<circle class="st3" cx="107" cy="1419.8" r="267.1"/>
<rect x="437" y="1162.1" class="st4" width="94.9" height="1.7"/>
<rect x="437" y="1172.1" class="st4" width="94.9" height="1.7"/>
<rect x="437" y="1182.1" class="st4" width="94.9" height="1.7"/>
<rect x="437" y="1192.1" class="st5" width="94.9" height="1.7"/>
<rect x="437" y="1242.1" class="st4" width="94.9" height="1.7"/>
<circle class="st4" cx="399" cy="1686.9" r="8"/>
<circle class="st4" cx="369" cy="1686.9" r="8"/>
</svg>
