<?xml version="1.0" encoding="utf-8"?>
<!-- Generator: Adobe Illustrator 19.0.0, SVG Export Plug-In . SVG Version: 6.00 Build 0)  -->
<svg version="1.1" id="Calque_1" xmlns="http://www.w3.org/2000/svg" xmlns:xlink="http://www.w3.org/1999/xlink" x="0px" y="0px"
	 viewBox="0 0 898.9 372.3" style="enable-background:new 0 0 898.9 372.3;" xml:space="preserve">
<style type="text/css">
	.st0{opacity:0.95;fill:#FFFFFF;enable-background:new    ;}
	.st1{opacity:0.9;fill:#FFFFFF;enable-background:new    ;}
	.st2{opacity:0.9;fill:none;stroke:#FFFFFF;stroke-width:2;stroke-miterlimit:10;enable-background:new    ;}
	.st3{opacity:0.6;fill:#FFFFFF;enable-background:new    ;}
	.st4{fill:none;stroke:#FFFFFF;stroke-width:2;stroke-miterlimit:10;}
	.st5{opacity:0.8;fill:#FFFFFF;enable-background:new    ;}
	.st6{opacity:0.7;fill:#FFFFFF;enable-background:new    ;}
</style>
<g>
	<path class="st0" d="M898.9,49.6c0,13.4-5.5,25.6-14.3,34.4c-8.8,8.8-21,14.3-34.4,14.3h-69V1.6h-58.5v96.8h-674
		C21.9,98.4,0,76.5,0,49.7c0-13.4,5.5-25.6,14.3-34.4C23.1,6.5,35.3,1,48.7,1h801.5C877,0.9,898.9,22.8,898.9,49.6z"/>
	<path class="st1" d="M840.2,98.4H58.6c-26.8,0-48.7-21.9-48.7-48.7l0,0C9.9,22.9,31.8,1,58.6,1h781.6c26.8,0,48.7,21.9,48.7,48.7
		l0,0C889,76.4,867,98.4,840.2,98.4z"/>
	<path class="st2" d="M840.2,98.4H58.6c-26.8,0-48.7-21.9-48.7-48.7l0,0C9.9,22.9,31.8,1,58.6,1h781.6c26.8,0,48.7,21.9,48.7,48.7
		l0,0C889,76.4,867,98.4,840.2,98.4z"/>
	<rect x="70.9" y="98.4" class="st3" width="759.7" height="272.9"/>
	<rect x="70.9" y="98.4" class="st4" width="759.7" height="272.9"/>
	<rect x="691.4" y="99.6" class="st5" width="67" height="271.7"/>
	<path class="st6" d="M835.6,160.9H65.8c-2.3,0-4.2-1.9-4.2-4.2v-12.2c0-2.3,1.9-4.2,4.2-4.2h769.8c2.3,0,4.2,1.9,4.2,4.2v12.2
		C839.9,159,838,160.9,835.6,160.9z"/>
	<path class="st6" d="M835.6,222.9H65.8c-2.3,0-4.2-1.9-4.2-4.2v-12.2c0-2.3,1.9-4.2,4.2-4.2h769.8c2.3,0,4.2,1.9,4.2,4.2v12.2
		C839.9,221,838,222.9,835.6,222.9z"/>
	<path class="st6" d="M835.6,284.9H65.8c-2.3,0-4.2-1.9-4.2-4.2v-12.2c0-2.3,1.9-4.2,4.2-4.2h769.8c2.3,0,4.2,1.9,4.2,4.2v12.2
		C839.9,283,838,284.9,835.6,284.9z"/>
	<path class="st6" d="M835.6,346.9H65.8c-2.3,0-4.2-1.9-4.2-4.2v-12.2c0-2.3,1.9-4.2,4.2-4.2h769.8c2.3,0,4.2,1.9,4.2,4.2v12.2
		C839.9,345,838,346.9,835.6,346.9z"/>
	<rect x="722.6" y="1.6" class="st1" width="58.5" height="96.8"/>
</g>
</svg>
